sfk_cyclingleg_states
version=1
nRows=12
nColumns=49
inDegrees=yes

# SIMM Motion File Header:
name sfk_cyclingleg_states
datacolumns 49
datarows 12
otherdata 1
range 0.43808594 0.44384285
endheader
time	/jointset/bb/crank_angle/value	/jointset/bb/crank_angle/speed	/jointset/spindle/pedal_angle_r/value	/jointset/spindle/pedal_angle_r/speed	/jointset/ground_pelvis/pelvis_tilt/value	/jointset/ground_pelvis/pelvis_tilt/speed	/jointset/ground_pelvis/pelvis_list/value	/jointset/ground_pelvis/pelvis_list/speed	/jointset/ground_pelvis/pelvis_rotation/value	/jointset/ground_pelvis/pelvis_rotation/speed	/jointset/ground_pelvis/pelvis_tx/value	/jointset/ground_pelvis/pelvis_tx/speed	/jointset/ground_pelvis/pelvis_ty/value	/jointset/ground_pelvis/pelvis_ty/speed	/jointset/ground_pelvis/pelvis_tz/value	/jointset/ground_pelvis/pelvis_tz/speed	/jointset/hip_r/hip_angle_r/value	/jointset/hip_r/hip_angle_r/speed	/jointset/hip_r/hip_adduction_r/value	/jointset/hip_r/hip_adduction_r/speed	/jointset/hip_r/hip_rotation_r/value	/jointset/hip_r/hip_rotation_r/speed	/jointset/knee_r/knee_angle_r/value	/jointset/knee_r/knee_angle_r/speed	/jointset/knee_r/tib_tx_r/value	/jointset/knee_r/tib_tx_r/speed	/jointset/knee_r/tib_ty_r/value	/jointset/knee_r/tib_ty_r/speed	/jointset/tib_pat_r/pat_angle_r/value	/jointset/tib_pat_r/pat_angle_r/speed	/jointset/tib_pat_r/pat_tx_r/value	/jointset/tib_pat_r/pat_tx_r/speed	/jointset/tib_pat_r/pat_ty_r/value	/jointset/tib_pat_r/pat_ty_r/speed	/jointset/ankle_r/ankle_angle_r/value	/jointset/ankle_r/ankle_angle_r/speed	/jointset/subtalar_r/subtalar_angle_r/value	/jointset/subtalar_r/subtalar_angle_r/speed	/jointset/mtp_r/mtp_angle_r/value	/jointset/mtp_r/mtp_angle_r/speed	/forceset/bifemlh_r/activation	/forceset/bifemlh_r/fiber_length	/forceset/bifemsh_r/activation	/forceset/bifemsh_r/fiber_length	/forceset/glut_max2_r/activation	/forceset/glut_max2_r/fiber_length	/forceset/vas_int_r/activation	/forceset/vas_int_r/fiber_length
      0.43808594	   -220.47686378	   -480.13863232	    212.74788164	    278.10926726	      0.00000000	     -0.00000000	     -0.00000000	     -0.00000000	      0.00000000	      0.00000000	     -0.00000000	     -0.00000000	      0.00000000	      0.00000000	     -0.00000000	     -0.00000000	     40.74268974	     99.62727387	      4.37672930	     -0.56146648	     -0.01436003	    -22.92797814	    -69.68643051	   -298.39323436	      0.00515012	      0.00078294	     -0.47903435	     -0.09760340	     17.51827206	      1.82500777	      0.03984088	     -0.09502398	     -0.02260317	      0.00789426	     21.65700411	     -2.43467360	     -0.00000000	     -0.00000000	      0.00000000	      0.00000000	     -0.03096148	      0.11250744	     -0.03096148	      0.16112396	     -0.03096148	      0.13070768	     -0.03096148	      0.13589060
      0.43860930	   -220.72814663	   -480.13863232	    212.89355695	    278.58916693	      0.00000000	     -0.00000000	     -0.00000000	     -0.00000000	      0.00000000	      0.00000000	     -0.00000000	     -0.00000000	      0.00000000	      0.00000000	     -0.00000000	     -0.00000000	     40.79489074	     99.85873927	      4.37643283	     -0.57149332	     -0.02635644	    -22.91631388	    -69.84259891	   -298.40373791	      0.00515045	      0.00047323	     -0.47908545	     -0.09769035	     17.51921501	      1.77858316	      0.03979112	     -0.09514738	     -0.02259906	      0.00779944	     21.65579888	     -2.17117897	     -0.00000000	     -0.00000000	      0.00000000	      0.00000000	     -0.03102886	      0.11248347	     -0.03102886	      0.16104255	     -0.03102886	      0.13074686	     -0.03102886	      0.13599842
      0.43913265	   -220.97942949	   -480.13863232	    213.03948396	    279.07115358	      0.00000000	     -0.00000000	     -0.00000000	     -0.00000000	      0.00000000	      0.00000000	     -0.00000000	     -0.00000000	      0.00000000	      0.00000000	     -0.00000000	     -0.00000000	     40.84721279	    100.08990970	      4.37613112	     -0.58151470	     -0.03834677	    -22.90471457	    -69.99877209	   -298.41146933	      0.00515061	      0.00016351	     -0.47913660	     -0.09777580	     17.52013385	      1.73285286	      0.03974129	     -0.09527034	     -0.02259501	      0.00770309	     21.65473145	     -1.90808273	     -0.00000000	     -0.00000000	      0.00000000	      0.00000000	     -0.03109624	      0.11245978	     -0.03109624	      0.16096125	     -0.03109624	      0.13078612	     -0.03109624	      0.13611684
      0.43965601	   -221.23071235	   -480.13863232	    213.18566377	    279.55522406	      0.00000000	     -0.00000000	     -0.00000000	     -0.00000000	      0.00000000	      0.00000000	     -0.00000000	     -0.00000000	      0.00000000	      0.00000000	     -0.00000000	     -0.00000000	     40.89965575	    100.32079401	      4.37582416	     -0.59153032	     -0.05033104	    -22.89318041	    -70.15494858	   -298.41644128	      0.00515062	     -0.00014620	     -0.47918780	     -0.09785975	     17.52102893	      1.68781874	      0.03969140	     -0.09539287	     -0.02259100	      0.00760520	     21.65380160	     -1.64538419	     -0.00000000	     -0.00000000	      0.00000000	      0.00000000	     -0.03116363	      0.11243639	     -0.03116363	      0.16088007	     -0.03116363	      0.13082546	     -0.03116363	      0.13620042
      0.44017936	   -221.48199521	   -480.13863232	    213.33209746	    280.04137533	      0.00000000	     -0.00000000	     -0.00000000	     -0.00000000	      0.00000000	      0.00000000	     -0.00000000	     -0.00000000	      0.00000000	      0.00000000	     -0.00000000	     -0.00000000	     40.95221948	    100.55140091	      4.37551196	     -0.60153985	     -0.06230929	    -22.88171161	    -70.31112696	   -298.41866620	      0.00515046	     -0.00045591	     -0.47923903	     -0.09794220	     17.52190062	      1.64348261	      0.03964144	     -0.09551496	     -0.02258705	      0.00750578	     21.65300914	     -1.38308263	     -0.00000000	     -0.00000000	      0.00000000	      0.00000000	     -0.03123101	      0.11241329	     -0.03123101	      0.16079902	     -0.03123101	      0.13086488	     -0.03123101	      0.13630407
      0.44070272	   -221.73327807	   -480.13863232	    213.47878613	    280.52960578	      0.00000000	     -0.00000000	     -0.00000000	     -0.00000000	      0.00000000	      0.00000000	     -0.00000000	     -0.00000000	      0.00000000	      0.00000000	     -0.00000000	     -0.00000000	     41.00490382	    100.78173828	      4.37519452	     -0.61154295	     -0.07428155	    -22.87030818	    -70.46730579	   -298.41815460	      0.00515014	     -0.00076560	     -0.47929031	     -0.09802317	     17.52274930	      1.59984619	      0.03959142	     -0.09563662	     -0.02258314	      0.00740484	     21.65235385	     -1.12117704	     -0.00000000	     -0.00000000	      0.00000000	      0.00000000	     -0.03129839	      0.11239047	     -0.03129839	      0.16071809	     -0.03129839	      0.13090438	     -0.03129839	      0.13641012
      0.44122607	   -221.98456092	   -480.13863232	    213.62573086	    281.01991390	      0.00000000	     -0.00000000	     -0.00000000	     -0.00000000	      0.00000000	      0.00000000	     -0.00000000	     -0.00000000	      0.00000000	      0.00000000	     -0.00000000	     -0.00000000	     41.05770865	    101.01181388	      4.37487185	     -0.62153923	     -0.08624787	    -22.85897013	    -70.62348363	   -298.41491675	      0.00514966	     -0.00107525	     -0.47934163	     -0.09810264	     17.52357532	      1.55691112	      0.03954134	     -0.09575783	     -0.02257930	      0.00730237	     21.65183552	     -0.85966640	     -0.00000000	     -0.00000000	      0.00000000	      0.00000000	     -0.03136577	      0.11236795	     -0.03136577	      0.16063729	     -0.03136577	      0.13094395	     -0.03136577	      0.13652727
      0.44174943	   -222.23584378	   -480.13863232	    213.77293273	    281.51229832	      0.00000000	     -0.00000000	     -0.00000000	     -0.00000000	      0.00000000	      0.00000000	     -0.00000000	     -0.00000000	      0.00000000	      0.00000000	     -0.00000000	     -0.00000000	     41.11063382	    101.24163534	      4.37454395	     -0.63152834	     -0.09820827	    -22.84769745	    -70.77965907	   -298.40896267	      0.00514901	     -0.00138486	     -0.47939300	     -0.09818063	     17.52437906	      1.51467899	      0.03949119	     -0.09587861	     -0.02257550	      0.00719838	     21.65145396	     -0.59854968	     -0.00000000	     -0.00000000	      0.00000000	      0.00000000	     -0.03143315	      0.11234573	     -0.03143315	      0.16055662	     -0.03143315	      0.13098361	     -0.03143315	      0.13661589
      0.44227278	   -222.48712664	   -480.13863232	    213.92039285	    282.00675778	      0.00000000	     -0.00000000	     -0.00000000	     -0.00000000	      0.00000000	      0.00000000	     -0.00000000	     -0.00000000	      0.00000000	      0.00000000	     -0.00000000	     -0.00000000	     41.16367920	    101.47121016	      4.37421082	     -0.64150992	     -0.11016279	    -22.83649009	    -70.93583069	   -298.40030215	      0.00514821	     -0.00169441	     -0.47944440	     -0.09825713	     17.52516087	      1.47315128	      0.03944098	     -0.09599895	     -0.02257176	      0.00709288	     21.65120895	     -0.33782585	     -0.00000000	     -0.00000000	      0.00000000	      0.00000000	     -0.03150054	      0.11232380	     -0.03150054	      0.16047607	     -0.03150054	      0.13102334	     -0.03150054	      0.13673347
      0.44279614	   -222.73840950	   -480.13863232	    214.06811228	    282.50329112	      0.00000000	     -0.00000000	     -0.00000000	     -0.00000000	      0.00000000	      0.00000000	     -0.00000000	     -0.00000000	      0.00000000	      0.00000000	     -0.00000000	     -0.00000000	     41.21684466	    101.70054573	      4.37387248	     -0.65148360	     -0.12211145	    -22.82534799	    -71.09199706	   -298.38894476	      0.00514724	     -0.00200390	     -0.47949584	     -0.09833214	     17.52592114	      1.43232942	      0.03939071	     -0.09611885	     -0.02256808	      0.00698587	     21.65110028	     -0.07749385	     -0.00000000	     -0.00000000	      0.00000000	      0.00000000	     -0.03156792	      0.11230216	     -0.03156792	      0.16039566	     -0.03156792	      0.13106316	     -0.03156792	      0.13681879
      0.44331949	   -222.98969236	   -480.13863232	    214.21609211	    283.00189732	      0.00000000	     -0.00000000	     -0.00000000	     -0.00000000	      0.00000000	      0.00000000	     -0.00000000	     -0.00000000	      0.00000000	      0.00000000	     -0.00000000	     -0.00000000	     41.27013009	    101.92964931	      4.37352891	     -0.66144904	     -0.13405431	    -22.81427106	    -71.24815679	   -298.37489984	      0.00514611	     -0.00231331	     -0.47954733	     -0.09840566	     17.52666023	      1.39221477	      0.03934037	     -0.09623830	     -0.02256445	      0.00687735	     21.65112776	      0.18244735	     -0.00000000	     -0.00000000	      0.00000000	      0.00000000	     -0.03163530	      0.11228082	     -0.03163530	      0.16031537	     -0.03163530	      0.13110305	     -0.03163530	      0.13693097
      0.44384285	   -223.24097521	   -480.13863232	    214.36433344	    283.50257543	      0.00000000	     -0.00000000	     -0.00000000	     -0.00000000	      0.00000000	      0.00000000	     -0.00000000	     -0.00000000	      0.00000000	      0.00000000	     -0.00000000	     -0.00000000	     41.32353537	    102.15852805	      4.37318013	     -0.67140585	     -0.14599138	    -22.80325921	    -71.40430847	   -298.35817651	      0.00514482	     -0.00262263	     -0.47959885	     -0.09847769	     17.52737851	      1.35280861	      0.03928997	     -0.09635731	     -0.02256088	      0.00676734	     21.65129118	      0.44199880	     -0.00000000	     -0.00000000	      0.00000000	      0.00000000	     -0.03170268	      0.11225977	     -0.03170268	      0.16023522	     -0.03170268	      0.13114302	     -0.03170268	      0.13703841
